<svg width="179" height="19.5" viewBox="0 0 202 47" fill="none" xmlns="http://www.w3.org/2000/svg">
	<path d="M14.0938 15.9531L22.2734 2.875H27.5703L16.7891 19.7969L27.8281 37H22.4844L14.0938 23.6875L5.65625 37H0.335938L11.3984 19.7969L0.59375 2.875H5.86719L14.0938 15.9531ZM53.7969 24.6016C53.7969 28.4609 52.9141 31.5703 51.1484 33.9297C49.3828 36.2891 46.9922 37.4688 43.9766 37.4688C40.8984 37.4688 38.4766 36.4922 36.7109 34.5391V46.75H32.375V11.6406H36.3359L36.5469 14.4531C38.3125 12.2656 40.7656 11.1719 43.9062 11.1719C46.9531 11.1719 49.3594 12.3203 51.125 14.6172C52.9062 16.9141 53.7969 20.1094 53.7969 24.2031V24.6016ZM49.4609 24.1094C49.4609 21.25 48.8516 18.9922 47.6328 17.3359C46.4141 15.6797 44.7422 14.8516 42.6172 14.8516C39.9922 14.8516 38.0234 16.0156 36.7109 18.3438V30.4609C38.0078 32.7734 39.9922 33.9297 42.6641 33.9297C44.7422 33.9297 46.3906 33.1094 47.6094 31.4688C48.8438 29.8125 49.4609 27.3594 49.4609 24.1094ZM69.8516 37.4688C66.4141 37.4688 63.6172 36.3438 61.4609 34.0938C59.3047 31.8281 58.2266 28.8047 58.2266 25.0234V24.2266C58.2266 21.7109 58.7031 19.4688 59.6562 17.5C60.625 15.5156 61.9688 13.9688 63.6875 12.8594C65.4219 11.7344 67.2969 11.1719 69.3125 11.1719C72.6094 11.1719 75.1719 12.2578 77 14.4297C78.8281 16.6016 79.7422 19.7109 79.7422 23.7578V25.5625H62.5625C62.625 28.0625 63.3516 30.0859 64.7422 31.6328C66.1484 33.1641 67.9297 33.9297 70.0859 33.9297C71.6172 33.9297 72.9141 33.6172 73.9766 32.9922C75.0391 32.3672 75.9688 31.5391 76.7656 30.5078L79.4141 32.5703C77.2891 35.8359 74.1016 37.4688 69.8516 37.4688ZM69.3125 14.7344C67.5625 14.7344 66.0938 15.375 64.9062 16.6562C63.7188 17.9219 62.9844 19.7031 62.7031 22H75.4062V21.6719C75.2812 19.4688 74.6875 17.7656 73.625 16.5625C72.5625 15.3438 71.125 14.7344 69.3125 14.7344ZM97.0391 15.5312C96.3828 15.4219 95.6719 15.3672 94.9062 15.3672C92.0625 15.3672 90.1328 16.5781 89.1172 19V37H84.7812V11.6406H89L89.0703 14.5703C90.4922 12.3047 92.5078 11.1719 95.1172 11.1719C95.9609 11.1719 96.6016 11.2812 97.0391 11.5V15.5312ZM108.102 5.5V11.6406H112.836V14.9922H108.102V30.7188C108.102 31.7344 108.312 32.5 108.734 33.0156C109.156 33.5156 109.875 33.7656 110.891 33.7656C111.391 33.7656 112.078 33.6719 112.953 33.4844V37C111.812 37.3125 110.703 37.4688 109.625 37.4688C107.688 37.4688 106.227 36.8828 105.242 35.7109C104.258 34.5391 103.766 32.875 103.766 30.7188V14.9922H99.1484V11.6406H103.766V5.5H108.102ZM128.656 21.7891C124.797 20.6797 121.984 19.3203 120.219 17.7109C118.469 16.0859 117.594 14.0859 117.594 11.7109C117.594 9.02344 118.664 6.80469 120.805 5.05469C122.961 3.28906 125.758 2.40625 129.195 2.40625C131.539 2.40625 133.625 2.85937 135.453 3.76562C137.297 4.67188 138.719 5.92188 139.719 7.51562C140.734 9.10938 141.242 10.8516 141.242 12.7422H136.719C136.719 10.6797 136.062 9.0625 134.75 7.89062C133.438 6.70312 131.586 6.10938 129.195 6.10938C126.977 6.10938 125.242 6.60156 123.992 7.58594C122.758 8.55469 122.141 9.90625 122.141 11.6406C122.141 13.0312 122.727 14.2109 123.898 15.1797C125.086 16.1328 127.094 17.0078 129.922 17.8047C132.766 18.6016 134.984 19.4844 136.578 20.4531C138.188 21.4062 139.375 22.5234 140.141 23.8047C140.922 25.0859 141.312 26.5938 141.312 28.3281C141.312 31.0938 140.234 33.3125 138.078 34.9844C135.922 36.6406 133.039 37.4688 129.43 37.4688C127.086 37.4688 124.898 37.0234 122.867 36.1328C120.836 35.2266 119.266 33.9922 118.156 32.4297C117.062 30.8672 116.516 29.0938 116.516 27.1094H121.039C121.039 29.1719 121.797 30.8047 123.312 32.0078C124.844 33.1953 126.883 33.7891 129.43 33.7891C131.805 33.7891 133.625 33.3047 134.891 32.3359C136.156 31.3672 136.789 30.0469 136.789 28.375C136.789 26.7031 136.203 25.4141 135.031 24.5078C133.859 23.5859 131.734 22.6797 128.656 21.7891ZM145.273 24.0859C145.273 21.6016 145.758 19.3672 146.727 17.3828C147.711 15.3984 149.07 13.8672 150.805 12.7891C152.555 11.7109 154.547 11.1719 156.781 11.1719C160.234 11.1719 163.023 12.3672 165.148 14.7578C167.289 17.1484 168.359 20.3281 168.359 24.2969V24.6016C168.359 27.0703 167.883 29.2891 166.93 31.2578C165.992 33.2109 164.641 34.7344 162.875 35.8281C161.125 36.9219 159.109 37.4688 156.828 37.4688C153.391 37.4688 150.602 36.2734 148.461 33.8828C146.336 31.4922 145.273 28.3281 145.273 24.3906V24.0859ZM149.633 24.6016C149.633 27.4141 150.281 29.6719 151.578 31.375C152.891 33.0781 154.641 33.9297 156.828 33.9297C159.031 33.9297 160.781 33.0703 162.078 31.3516C163.375 29.6172 164.023 27.1953 164.023 24.0859C164.023 21.3047 163.359 19.0547 162.031 17.3359C160.719 15.6016 158.969 14.7344 156.781 14.7344C154.641 14.7344 152.914 15.5859 151.602 17.2891C150.289 18.9922 149.633 21.4297 149.633 24.6016ZM175.93 37V14.9922H171.922V11.6406H175.93V9.03906C175.93 6.32031 176.656 4.21875 178.109 2.73438C179.562 1.25 181.617 0.507812 184.273 0.507812C185.273 0.507812 186.266 0.640625 187.25 0.90625L187.016 4.42188C186.281 4.28125 185.5 4.21094 184.672 4.21094C183.266 4.21094 182.18 4.625 181.414 5.45312C180.648 6.26563 180.266 7.4375 180.266 8.96875V11.6406H185.68V14.9922H180.266V37H175.93ZM196.367 5.5V11.6406H201.102V14.9922H196.367V30.7188C196.367 31.7344 196.578 32.5 197 33.0156C197.422 33.5156 198.141 33.7656 199.156 33.7656C199.656 33.7656 200.344 33.6719 201.219 33.4844V37C200.078 37.3125 198.969 37.4688 197.891 37.4688C195.953 37.4688 194.492 36.8828 193.508 35.7109C192.523 34.5391 192.031 32.875 192.031 30.7188V14.9922H187.414V11.6406H192.031V5.5H196.367Z" fill="black"/>
</svg>
