<svg width="45" height="27" viewBox="0 0 45 27" fill="none" xmlns="http://www.w3.org/2000/svg">
	<mask id="path-1-outside-1_323_9" maskUnits="userSpaceOnUse" x="-1" y="0" width="46" height="28" fill="black">
		<rect fill="white" x="-1" width="46" height="28"/>
		<path d="M7.13091 4.72347L10.1815 1H12.1569L8.13611 5.81783L12.2531 10.7157H10.2601L7.13091 6.92552L3.98418 10.7157H2L6.1257 5.81783L2.09615 1H4.06285L7.13091 4.72347Z"/>
		<path d="M21.938 7.18577C21.938 8.28457 21.6087 9.16984 20.9503 9.84158C20.2918 10.5133 19.4002 10.8492 18.2755 10.8492C17.1276 10.8492 16.2243 10.5711 15.5659 10.0151V13.4916H13.9488V3.49566H15.426L15.5047 4.29641C16.1632 3.6736 17.078 3.3622 18.2493 3.3622C19.3856 3.3622 20.283 3.68917 20.9415 4.34312C21.6058 4.99706 21.938 5.9068 21.938 7.07233V7.18577ZM20.3209 7.04564C20.3209 6.23154 20.0937 5.58872 19.6391 5.11717C19.1846 4.64562 18.5611 4.40985 17.7686 4.40985C16.7896 4.40985 16.0554 4.74127 15.5659 5.40411V8.85399C16.0495 9.51238 16.7896 9.84158 17.7861 9.84158C18.5611 9.84158 19.1759 9.60803 19.6304 9.14092C20.0907 8.66937 20.3209 7.97094 20.3209 7.04564Z"/>
		<path d="M27.9255 10.8492C26.6435 10.8492 25.6004 10.5289 24.7963 9.88829C23.9921 9.24324 23.59 8.38244 23.59 7.30588V7.079C23.59 6.36278 23.7677 5.7244 24.1232 5.16388C24.4845 4.59891 24.9856 4.1585 25.6266 3.84265C26.2735 3.52235 26.9727 3.3622 27.7245 3.3622C28.954 3.3622 29.9097 3.67138 30.5915 4.28973C31.2733 4.90809 31.6142 5.79336 31.6142 6.94554V7.45936H25.2071C25.2304 8.17113 25.5014 8.74722 26.02 9.18763C26.5444 9.6236 27.2087 9.84158 28.0129 9.84158C28.584 9.84158 29.0676 9.75261 29.4639 9.57466C29.8601 9.39672 30.2069 9.16094 30.5041 8.86734L31.4918 9.45455C30.6993 10.3843 29.5105 10.8492 27.9255 10.8492ZM27.7245 4.37648C27.0718 4.37648 26.524 4.55887 26.0812 4.92366C25.6383 5.28399 25.3644 5.79113 25.2595 6.44508H29.9971V6.35166C29.9505 5.7244 29.729 5.23951 29.3328 4.89697C28.9365 4.54998 28.4004 4.37648 27.7245 4.37648Z"/>
		<path d="M38.0649 4.60336C37.8202 4.57222 37.555 4.55665 37.2695 4.55665C36.209 4.55665 35.4893 4.90142 35.1105 5.59095V10.7157H33.4934V3.49566H35.0668L35.093 4.32977C35.6233 3.68473 36.375 3.3622 37.3482 3.3622C37.6629 3.3622 37.9018 3.39334 38.0649 3.45562V4.60336Z"/>
		<path d="M42.1906 1.74736V3.49566H43.9563V4.44988H42.1906V8.92739C42.1906 9.21655 42.2693 9.43453 42.4266 9.58133C42.584 9.72369 42.852 9.79487 43.2308 9.79487C43.4173 9.79487 43.6737 9.76818 44 9.71479V10.7157C43.5746 10.8047 43.1609 10.8492 42.7588 10.8492C42.0362 10.8492 41.4914 10.6824 41.1242 10.3487C40.7571 10.0151 40.5736 9.5413 40.5736 8.92739V4.44988H38.8516V3.49566H40.5736V1.74736H42.1906Z"/>
		<path d="M11.8335 22.5358C10.3942 22.22 9.34527 21.833 8.68678 21.3748C8.03413 20.9121 7.7078 20.3427 7.7078 19.6665C7.7078 18.9013 8.10697 18.2696 8.90531 17.7714C9.70947 17.2687 10.7525 17.0174 12.0345 17.0174C12.9086 17.0174 13.6866 17.1464 14.3684 17.4044C15.056 17.6624 15.5863 18.0183 15.9592 18.472C16.338 18.9258 16.5274 19.4218 16.5274 19.9601H14.8404C14.8404 19.3729 14.5956 18.9125 14.1061 18.5788C13.6166 18.2407 12.9261 18.0717 12.0345 18.0717C11.2071 18.0717 10.5603 18.2118 10.0941 18.4921C9.63372 18.7679 9.40354 19.1527 9.40354 19.6465C9.40354 20.0424 9.62206 20.3783 10.0591 20.6541C10.502 20.9254 11.2508 21.1746 12.3055 21.4014C13.3661 21.6283 14.1935 21.8797 14.7879 22.1555C15.3881 22.4268 15.831 22.7449 16.1165 23.1097C16.4079 23.4745 16.5536 23.9038 16.5536 24.3976C16.5536 25.185 16.1515 25.8167 15.3473 26.2927C14.5432 26.7642 13.4681 27 12.122 27C11.2479 27 10.432 26.8732 9.67451 26.6196C8.91696 26.3616 8.33132 26.0102 7.91759 25.5653C7.50968 25.1205 7.30572 24.6156 7.30572 24.0506H8.99272C8.99272 24.6378 9.27534 25.1027 9.84058 25.4452C10.4117 25.7833 11.1721 25.9524 12.122 25.9524C13.0077 25.9524 13.6866 25.8144 14.1586 25.5386C14.6306 25.2628 14.8666 24.8869 14.8666 24.4109C14.8666 23.9349 14.6481 23.5679 14.211 23.3099C13.774 23.0474 12.9815 22.7894 11.8335 22.5358Z"/>
		<path d="M18.0308 23.1898C18.0308 22.4825 18.2114 21.8463 18.5727 21.2813C18.9399 20.7164 19.4468 20.2804 20.0937 19.9734C20.7463 19.6665 21.4893 19.513 22.3226 19.513C23.6104 19.513 24.6506 19.8533 25.4431 20.534C26.2414 21.2146 26.6406 22.1199 26.6406 23.2498V23.3366C26.6406 24.0395 26.4629 24.6712 26.1074 25.2317C25.7578 25.7878 25.2537 26.2215 24.5952 26.5329C23.9426 26.8443 23.1908 27 22.3401 27C21.0581 27 20.0179 26.6597 19.2196 25.979C18.4271 25.2984 18.0308 24.3976 18.0308 23.2765V23.1898ZM19.6566 23.3366C19.6566 24.1373 19.8984 24.7802 20.3821 25.265C20.8716 25.7499 21.5242 25.9924 22.3401 25.9924C23.1617 25.9924 23.8144 25.7477 24.298 25.2584C24.7817 24.7646 25.0235 24.0751 25.0235 23.1898C25.0235 22.3979 24.7759 21.7573 24.2805 21.268C23.7911 20.7742 23.1384 20.5273 22.3226 20.5273C21.5242 20.5273 20.8803 20.7697 20.3908 21.2546C19.9014 21.7395 19.6566 22.4335 19.6566 23.3366Z"/>
		<path d="M29.4639 26.8665V20.6007H27.9692V19.6465H29.4639V18.9058C29.4639 18.1317 29.7349 17.5334 30.2768 17.1108C30.8187 16.6882 31.585 16.4769 32.5757 16.4769C32.9486 16.4769 33.3186 16.5147 33.6857 16.5903L33.5983 17.5912C33.3245 17.5512 33.0331 17.5312 32.7242 17.5312C32.1998 17.5312 31.7948 17.6491 31.5093 17.8848C31.2237 18.1162 31.081 18.4498 31.081 18.8858V19.6465H33.1001V20.6007H31.081V26.8665H29.4639Z"/>
		<path d="M37.086 17.8982V19.6465H38.8516V20.6007H37.086V25.0782C37.086 25.3674 37.1646 25.5853 37.322 25.7322C37.4793 25.8745 37.7473 25.9457 38.1261 25.9457C38.3126 25.9457 38.569 25.919 38.8953 25.8656V26.8665C38.4699 26.9555 38.0562 27 37.6541 27C36.9315 27 36.3867 26.8332 36.0196 26.4995C35.6524 26.1659 35.4689 25.6921 35.4689 25.0782V20.6007H33.7469V19.6465H35.4689V17.8982H37.086Z"/>
	</mask>
	<path d="M7.13091 4.72347L10.1815 1H12.1569L8.13611 5.81783L12.2531 10.7157H10.2601L7.13091 6.92552L3.98418 10.7157H2L6.1257 5.81783L2.09615 1H4.06285L7.13091 4.72347Z" fill="black"/>
	<path d="M21.938 7.18577C21.938 8.28457 21.6087 9.16984 20.9503 9.84158C20.2918 10.5133 19.4002 10.8492 18.2755 10.8492C17.1276 10.8492 16.2243 10.5711 15.5659 10.0151V13.4916H13.9488V3.49566H15.426L15.5047 4.29641C16.1632 3.6736 17.078 3.3622 18.2493 3.3622C19.3856 3.3622 20.283 3.68917 20.9415 4.34312C21.6058 4.99706 21.938 5.9068 21.938 7.07233V7.18577ZM20.3209 7.04564C20.3209 6.23154 20.0937 5.58872 19.6391 5.11717C19.1846 4.64562 18.5611 4.40985 17.7686 4.40985C16.7896 4.40985 16.0554 4.74127 15.5659 5.40411V8.85399C16.0495 9.51238 16.7896 9.84158 17.7861 9.84158C18.5611 9.84158 19.1759 9.60803 19.6304 9.14092C20.0907 8.66937 20.3209 7.97094 20.3209 7.04564Z" fill="black"/>
	<path d="M27.9255 10.8492C26.6435 10.8492 25.6004 10.5289 24.7963 9.88829C23.9921 9.24324 23.59 8.38244 23.59 7.30588V7.079C23.59 6.36278 23.7677 5.7244 24.1232 5.16388C24.4845 4.59891 24.9856 4.1585 25.6266 3.84265C26.2735 3.52235 26.9727 3.3622 27.7245 3.3622C28.954 3.3622 29.9097 3.67138 30.5915 4.28973C31.2733 4.90809 31.6142 5.79336 31.6142 6.94554V7.45936H25.2071C25.2304 8.17113 25.5014 8.74722 26.02 9.18763C26.5444 9.6236 27.2087 9.84158 28.0129 9.84158C28.584 9.84158 29.0676 9.75261 29.4639 9.57466C29.8601 9.39672 30.2069 9.16094 30.5041 8.86734L31.4918 9.45455C30.6993 10.3843 29.5105 10.8492 27.9255 10.8492ZM27.7245 4.37648C27.0718 4.37648 26.524 4.55887 26.0812 4.92366C25.6383 5.28399 25.3644 5.79113 25.2595 6.44508H29.9971V6.35166C29.9505 5.7244 29.729 5.23951 29.3328 4.89697C28.9365 4.54998 28.4004 4.37648 27.7245 4.37648Z" fill="black"/>
	<path d="M38.0649 4.60336C37.8202 4.57222 37.555 4.55665 37.2695 4.55665C36.209 4.55665 35.4893 4.90142 35.1105 5.59095V10.7157H33.4934V3.49566H35.0668L35.093 4.32977C35.6233 3.68473 36.375 3.3622 37.3482 3.3622C37.6629 3.3622 37.9018 3.39334 38.0649 3.45562V4.60336Z" fill="black"/>
	<path d="M42.1906 1.74736V3.49566H43.9563V4.44988H42.1906V8.92739C42.1906 9.21655 42.2693 9.43453 42.4266 9.58133C42.584 9.72369 42.852 9.79487 43.2308 9.79487C43.4173 9.79487 43.6737 9.76818 44 9.71479V10.7157C43.5746 10.8047 43.1609 10.8492 42.7588 10.8492C42.0362 10.8492 41.4914 10.6824 41.1242 10.3487C40.7571 10.0151 40.5736 9.5413 40.5736 8.92739V4.44988H38.8516V3.49566H40.5736V1.74736H42.1906Z" fill="black"/>
	<path d="M11.8335 22.5358C10.3942 22.22 9.34527 21.833 8.68678 21.3748C8.03413 20.9121 7.7078 20.3427 7.7078 19.6665C7.7078 18.9013 8.10697 18.2696 8.90531 17.7714C9.70947 17.2687 10.7525 17.0174 12.0345 17.0174C12.9086 17.0174 13.6866 17.1464 14.3684 17.4044C15.056 17.6624 15.5863 18.0183 15.9592 18.472C16.338 18.9258 16.5274 19.4218 16.5274 19.9601H14.8404C14.8404 19.3729 14.5956 18.9125 14.1061 18.5788C13.6166 18.2407 12.9261 18.0717 12.0345 18.0717C11.2071 18.0717 10.5603 18.2118 10.0941 18.4921C9.63372 18.7679 9.40354 19.1527 9.40354 19.6465C9.40354 20.0424 9.62206 20.3783 10.0591 20.6541C10.502 20.9254 11.2508 21.1746 12.3055 21.4014C13.3661 21.6283 14.1935 21.8797 14.7879 22.1555C15.3881 22.4268 15.831 22.7449 16.1165 23.1097C16.4079 23.4745 16.5536 23.9038 16.5536 24.3976C16.5536 25.185 16.1515 25.8167 15.3473 26.2927C14.5432 26.7642 13.4681 27 12.122 27C11.2479 27 10.432 26.8732 9.67451 26.6196C8.91696 26.3616 8.33132 26.0102 7.91759 25.5653C7.50968 25.1205 7.30572 24.6156 7.30572 24.0506H8.99272C8.99272 24.6378 9.27534 25.1027 9.84058 25.4452C10.4117 25.7833 11.1721 25.9524 12.122 25.9524C13.0077 25.9524 13.6866 25.8144 14.1586 25.5386C14.6306 25.2628 14.8666 24.8869 14.8666 24.4109C14.8666 23.9349 14.6481 23.5679 14.211 23.3099C13.774 23.0474 12.9815 22.7894 11.8335 22.5358Z" fill="black"/>
	<path d="M18.0308 23.1898C18.0308 22.4825 18.2114 21.8463 18.5727 21.2813C18.9399 20.7164 19.4468 20.2804 20.0937 19.9734C20.7463 19.6665 21.4893 19.513 22.3226 19.513C23.6104 19.513 24.6506 19.8533 25.4431 20.534C26.2414 21.2146 26.6406 22.1199 26.6406 23.2498V23.3366C26.6406 24.0395 26.4629 24.6712 26.1074 25.2317C25.7578 25.7878 25.2537 26.2215 24.5952 26.5329C23.9426 26.8443 23.1908 27 22.3401 27C21.0581 27 20.0179 26.6597 19.2196 25.979C18.4271 25.2984 18.0308 24.3976 18.0308 23.2765V23.1898ZM19.6566 23.3366C19.6566 24.1373 19.8984 24.7802 20.3821 25.265C20.8716 25.7499 21.5242 25.9924 22.3401 25.9924C23.1617 25.9924 23.8144 25.7477 24.298 25.2584C24.7817 24.7646 25.0235 24.0751 25.0235 23.1898C25.0235 22.3979 24.7759 21.7573 24.2805 21.268C23.7911 20.7742 23.1384 20.5273 22.3226 20.5273C21.5242 20.5273 20.8803 20.7697 20.3908 21.2546C19.9014 21.7395 19.6566 22.4335 19.6566 23.3366Z" fill="black"/>
	<path d="M29.4639 26.8665V20.6007H27.9692V19.6465H29.4639V18.9058C29.4639 18.1317 29.7349 17.5334 30.2768 17.1108C30.8187 16.6882 31.585 16.4769 32.5757 16.4769C32.9486 16.4769 33.3186 16.5147 33.6857 16.5903L33.5983 17.5912C33.3245 17.5512 33.0331 17.5312 32.7242 17.5312C32.1998 17.5312 31.7948 17.6491 31.5093 17.8848C31.2237 18.1162 31.081 18.4498 31.081 18.8858V19.6465H33.1001V20.6007H31.081V26.8665H29.4639Z" fill="black"/>
	<path d="M37.086 17.8982V19.6465H38.8516V20.6007H37.086V25.0782C37.086 25.3674 37.1646 25.5853 37.322 25.7322C37.4793 25.8745 37.7473 25.9457 38.1261 25.9457C38.3126 25.9457 38.569 25.919 38.8953 25.8656V26.8665C38.4699 26.9555 38.0562 27 37.6541 27C36.9315 27 36.3867 26.8332 36.0196 26.4995C35.6524 26.1659 35.4689 25.6921 35.4689 25.0782V20.6007H33.7469V19.6465H35.4689V17.8982H37.086Z" fill="black"/>
	<path d="M7.13091 4.72347L10.1815 1H12.1569L8.13611 5.81783L12.2531 10.7157H10.2601L7.13091 6.92552L3.98418 10.7157H2L6.1257 5.81783L2.09615 1H4.06285L7.13091 4.72347Z" stroke="black" stroke-opacity="0.5" stroke-width="2" mask="url(#path-1-outside-1_323_9)"/>
	<path d="M21.938 7.18577C21.938 8.28457 21.6087 9.16984 20.9503 9.84158C20.2918 10.5133 19.4002 10.8492 18.2755 10.8492C17.1276 10.8492 16.2243 10.5711 15.5659 10.0151V13.4916H13.9488V3.49566H15.426L15.5047 4.29641C16.1632 3.6736 17.078 3.3622 18.2493 3.3622C19.3856 3.3622 20.283 3.68917 20.9415 4.34312C21.6058 4.99706 21.938 5.9068 21.938 7.07233V7.18577ZM20.3209 7.04564C20.3209 6.23154 20.0937 5.58872 19.6391 5.11717C19.1846 4.64562 18.5611 4.40985 17.7686 4.40985C16.7896 4.40985 16.0554 4.74127 15.5659 5.40411V8.85399C16.0495 9.51238 16.7896 9.84158 17.7861 9.84158C18.5611 9.84158 19.1759 9.60803 19.6304 9.14092C20.0907 8.66937 20.3209 7.97094 20.3209 7.04564Z" stroke="black" stroke-opacity="0.5" stroke-width="2" mask="url(#path-1-outside-1_323_9)"/>
	<path d="M27.9255 10.8492C26.6435 10.8492 25.6004 10.5289 24.7963 9.88829C23.9921 9.24324 23.59 8.38244 23.59 7.30588V7.079C23.59 6.36278 23.7677 5.7244 24.1232 5.16388C24.4845 4.59891 24.9856 4.1585 25.6266 3.84265C26.2735 3.52235 26.9727 3.3622 27.7245 3.3622C28.954 3.3622 29.9097 3.67138 30.5915 4.28973C31.2733 4.90809 31.6142 5.79336 31.6142 6.94554V7.45936H25.2071C25.2304 8.17113 25.5014 8.74722 26.02 9.18763C26.5444 9.6236 27.2087 9.84158 28.0129 9.84158C28.584 9.84158 29.0676 9.75261 29.4639 9.57466C29.8601 9.39672 30.2069 9.16094 30.5041 8.86734L31.4918 9.45455C30.6993 10.3843 29.5105 10.8492 27.9255 10.8492ZM27.7245 4.37648C27.0718 4.37648 26.524 4.55887 26.0812 4.92366C25.6383 5.28399 25.3644 5.79113 25.2595 6.44508H29.9971V6.35166C29.9505 5.7244 29.729 5.23951 29.3328 4.89697C28.9365 4.54998 28.4004 4.37648 27.7245 4.37648Z" stroke="black" stroke-opacity="0.5" stroke-width="2" mask="url(#path-1-outside-1_323_9)"/>
	<path d="M38.0649 4.60336C37.8202 4.57222 37.555 4.55665 37.2695 4.55665C36.209 4.55665 35.4893 4.90142 35.1105 5.59095V10.7157H33.4934V3.49566H35.0668L35.093 4.32977C35.6233 3.68473 36.375 3.3622 37.3482 3.3622C37.6629 3.3622 37.9018 3.39334 38.0649 3.45562V4.60336Z" stroke="black" stroke-opacity="0.5" stroke-width="2" mask="url(#path-1-outside-1_323_9)"/>
	<path d="M42.1906 1.74736V3.49566H43.9563V4.44988H42.1906V8.92739C42.1906 9.21655 42.2693 9.43453 42.4266 9.58133C42.584 9.72369 42.852 9.79487 43.2308 9.79487C43.4173 9.79487 43.6737 9.76818 44 9.71479V10.7157C43.5746 10.8047 43.1609 10.8492 42.7588 10.8492C42.0362 10.8492 41.4914 10.6824 41.1242 10.3487C40.7571 10.0151 40.5736 9.5413 40.5736 8.92739V4.44988H38.8516V3.49566H40.5736V1.74736H42.1906Z" stroke="black" stroke-opacity="0.5" stroke-width="2" mask="url(#path-1-outside-1_323_9)"/>
	<path d="M11.8335 22.5358C10.3942 22.22 9.34527 21.833 8.68678 21.3748C8.03413 20.9121 7.7078 20.3427 7.7078 19.6665C7.7078 18.9013 8.10697 18.2696 8.90531 17.7714C9.70947 17.2687 10.7525 17.0174 12.0345 17.0174C12.9086 17.0174 13.6866 17.1464 14.3684 17.4044C15.056 17.6624 15.5863 18.0183 15.9592 18.472C16.338 18.9258 16.5274 19.4218 16.5274 19.9601H14.8404C14.8404 19.3729 14.5956 18.9125 14.1061 18.5788C13.6166 18.2407 12.9261 18.0717 12.0345 18.0717C11.2071 18.0717 10.5603 18.2118 10.0941 18.4921C9.63372 18.7679 9.40354 19.1527 9.40354 19.6465C9.40354 20.0424 9.62206 20.3783 10.0591 20.6541C10.502 20.9254 11.2508 21.1746 12.3055 21.4014C13.3661 21.6283 14.1935 21.8797 14.7879 22.1555C15.3881 22.4268 15.831 22.7449 16.1165 23.1097C16.4079 23.4745 16.5536 23.9038 16.5536 24.3976C16.5536 25.185 16.1515 25.8167 15.3473 26.2927C14.5432 26.7642 13.4681 27 12.122 27C11.2479 27 10.432 26.8732 9.67451 26.6196C8.91696 26.3616 8.33132 26.0102 7.91759 25.5653C7.50968 25.1205 7.30572 24.6156 7.30572 24.0506H8.99272C8.99272 24.6378 9.27534 25.1027 9.84058 25.4452C10.4117 25.7833 11.1721 25.9524 12.122 25.9524C13.0077 25.9524 13.6866 25.8144 14.1586 25.5386C14.6306 25.2628 14.8666 24.8869 14.8666 24.4109C14.8666 23.9349 14.6481 23.5679 14.211 23.3099C13.774 23.0474 12.9815 22.7894 11.8335 22.5358Z" stroke="black" stroke-opacity="0.5" stroke-width="2" mask="url(#path-1-outside-1_323_9)"/>
	<path d="M18.0308 23.1898C18.0308 22.4825 18.2114 21.8463 18.5727 21.2813C18.9399 20.7164 19.4468 20.2804 20.0937 19.9734C20.7463 19.6665 21.4893 19.513 22.3226 19.513C23.6104 19.513 24.6506 19.8533 25.4431 20.534C26.2414 21.2146 26.6406 22.1199 26.6406 23.2498V23.3366C26.6406 24.0395 26.4629 24.6712 26.1074 25.2317C25.7578 25.7878 25.2537 26.2215 24.5952 26.5329C23.9426 26.8443 23.1908 27 22.3401 27C21.0581 27 20.0179 26.6597 19.2196 25.979C18.4271 25.2984 18.0308 24.3976 18.0308 23.2765V23.1898ZM19.6566 23.3366C19.6566 24.1373 19.8984 24.7802 20.3821 25.265C20.8716 25.7499 21.5242 25.9924 22.3401 25.9924C23.1617 25.9924 23.8144 25.7477 24.298 25.2584C24.7817 24.7646 25.0235 24.0751 25.0235 23.1898C25.0235 22.3979 24.7759 21.7573 24.2805 21.268C23.7911 20.7742 23.1384 20.5273 22.3226 20.5273C21.5242 20.5273 20.8803 20.7697 20.3908 21.2546C19.9014 21.7395 19.6566 22.4335 19.6566 23.3366Z" stroke="black" stroke-opacity="0.5" stroke-width="2" mask="url(#path-1-outside-1_323_9)"/>
	<path d="M29.4639 26.8665V20.6007H27.9692V19.6465H29.4639V18.9058C29.4639 18.1317 29.7349 17.5334 30.2768 17.1108C30.8187 16.6882 31.585 16.4769 32.5757 16.4769C32.9486 16.4769 33.3186 16.5147 33.6857 16.5903L33.5983 17.5912C33.3245 17.5512 33.0331 17.5312 32.7242 17.5312C32.1998 17.5312 31.7948 17.6491 31.5093 17.8848C31.2237 18.1162 31.081 18.4498 31.081 18.8858V19.6465H33.1001V20.6007H31.081V26.8665H29.4639Z" stroke="black" stroke-opacity="0.5" stroke-width="2" mask="url(#path-1-outside-1_323_9)"/>
	<path d="M37.086 17.8982V19.6465H38.8516V20.6007H37.086V25.0782C37.086 25.3674 37.1646 25.5853 37.322 25.7322C37.4793 25.8745 37.7473 25.9457 38.1261 25.9457C38.3126 25.9457 38.569 25.919 38.8953 25.8656V26.8665C38.4699 26.9555 38.0562 27 37.6541 27C36.9315 27 36.3867 26.8332 36.0196 26.4995C35.6524 26.1659 35.4689 25.6921 35.4689 25.0782V20.6007H33.7469V19.6465H35.4689V17.8982H37.086Z" stroke="black" stroke-opacity="0.5" stroke-width="2" mask="url(#path-1-outside-1_323_9)"/>

</svg>
